<?xml version="1.0" encoding="UTF-8"?>
<svg id="Layer_1" xmlns="http://www.w3.org/2000/svg" version="1.1" viewBox="0 0 650 650">
  <!-- Generator: Adobe Illustrator 29.7.1, SVG Export Plug-In . SVG Version: 2.1.1 Build 8)  -->
  <defs>
    <style>
      .st0 {
        fill: none;
        stroke: #fff;
        stroke-miterlimit: 10;
        stroke-width: 24px;
      }

      .st1 {
        fill: #fff;
      }
    </style>
  </defs>
  <path class="st1" d="M330.31,133c2.86,1.17,5.88,1.67,8.76,2.86,16.41,6.82,36.75,36.86,51.97,48.52.76.58.95,1.45,2.25,1.12v-44.62c0-2.5,5.76-7.18,8.25-7.88h53.98c4.66,2.66,7.62,5.14,8.25,10.87l.15,113.1,44.81,45.18c4.53,5.26,6.74,11.71,8.27,18.35v9c-2.33,12.87-10.72,24.4-23.26,28.86-.87.31-6.03,1.89-6.36,1.89h-11.62l.04,116.66c-1.37,21.11-15.49,36.18-36.02,40.09h-80.97c-3.13-1.03-9-5.94-9-9.38v-87.38h-49.48v87.38c0,3.44-5.86,8.35-9,9.38h-80.97c-19.93-3.66-34.58-18.81-36.02-39.34l.03-117.41h-11.62c-2.25,0-10.61-3.71-12.89-5.1-9.19-5.6-14.25-14.66-16.72-24.9.3-3.34-.41-7.26,0-10.5.43-3.41,3.5-10.7,5.38-13.74,54.93-56.64,110.95-112.68,167.57-167.63,3.04-1.89,10.32-4.95,13.74-5.38h10.5-.02ZM322.62,155.68c-2.83.48-5.56,2.47-7.69,4.3l-155.19,155.26c-11.14,12.18,2.46,28.8,16.51,20.26l140.18-140.27c5.03-5.05,12.25-5.05,17.28,0l140.18,140.27c14.04,8.53,27.65-8.07,16.51-20.26l-155.57-155.62c-3.82-3.04-7.09-4.79-12.2-3.93h0ZM441.28,155.5h-25.49v53.62l25.49,25.12v-78.75h0ZM372.3,494.5h65.6c6.48,0,15.66-10.91,15.36-17.63l-.14-129.59-128.32-127.97-127.78,127.97-.15,129.59c.79,6.72,4.41,12.71,10.56,15.69.7.34,4.54,1.95,4.8,1.95h65.6v-88.12c0-.22,1.83-3.19,2.25-3.75,2.67-3.56,5.81-4.47,10.13-4.86,18.09-1.63,49.92-1.3,68.25-.05,4.9.34,8.5.79,11.59,4.91.42.56,2.25,3.53,2.25,3.75v88.12h0Z"/>
  <circle class="st0" cx="325" cy="325" r="291.5"/>
</svg>