<?xml version="1.0" encoding="UTF-8"?>
<svg id="Layer_1" xmlns="http://www.w3.org/2000/svg" version="1.1" viewBox="0 0 515 515">
  <!-- Generator: Adobe Illustrator 29.7.1, SVG Export Plug-In . SVG Version: 2.1.1 Build 8)  -->
  <defs>
    <style>
      .st0 {
        fill: #fff;
      }
    </style>
  </defs>
  <path class="st0" d="M461.5,1.5c27.16,4.99,47,24.79,52,52v408c-5,27.21-24.84,47.01-52,52H53.5c-27.21-5-47.01-24.84-52-52V53.5C5.72,28.06,27.32,4.64,53.5,1.5h408ZM58.26,41.76c-9.69,1.51-16.4,9.42-16.8,19.2v393.07c.45,11.29,9.18,19.57,20.49,19.51h392.08c11.29-.46,19.57-9.18,19.51-20.5V60.96c-.45-10.9-8.6-19.06-19.51-19.5l-395.77.3h0Z"/>
  <circle class="st0" cx="127.51" cy="126.5" r="40.99"/>
  <g>
    <path class="st0" d="M423.5,424.5h-69l.04-123.54c-1.71-28.07-10.59-48.88-42.53-46.44-24.13,1.84-38.52,23.28-38.52,46.49v123.5h-68v-226h68v30l6.02-8.48c21.62-25.78,60.76-30.32,91.76-21.8,35.71,9.81,47.76,39.7,51.21,73.79l1.01,152.49h0Z"/>
    <rect class="st0" x="91.5" y="198.5" width="70" height="226"/>
  </g>
</svg>