<?xml version="1.0" encoding="UTF-8"?>
<svg id="Layer_1" xmlns="http://www.w3.org/2000/svg" version="1.1" viewBox="0 0 415 415">
  <!-- Generator: Adobe Illustrator 29.7.1, SVG Export Plug-In . SVG Version: 2.1.1 Build 8)  -->
  <defs>
    <style>
      .st0 {
        fill: #fff;
      }
    </style>
  </defs>
  <path class="st0" d="M2.5,33.65C5.53,17.12,18.11,4.43,35.02,2.51h202.39c3.29.95,6.94,1.37,10.1,2.7,9.96,4.19,39.21,33.63,48.46,42.83,7.02,7,18.79,18.51,18.79,29.26v121.34l38.41-44.47c34.24-26,77.1,14.01,51.6,50.01l-89.4,106c-2.43,22.16,1.15,46.22-.58,68.3-1.29,16.46-14.44,32-31.25,34.01H33.73c-16.31-3.07-28.22-14.87-31.23-31.24V33.65ZM218.68,26.44H36.53c-2.95,0-8.85,5.04-9.26,8.36-1.25,114.89-1.25,230.41,0,345.3,1.62,5.32,6.23,8.03,11.63,8.39l243.48-.78c3.32-.41,8.36-6.31,8.36-9.26v-39.65c-4.06,2.96-8.54,5.19-13.07,7.35-11.17,5.32-25.9,12.1-37.39,16.26-10.16,3.68-17.4,1.97-19.58-9.58,3.67-16.07,6.51-33.54,11.17-49.28,3.38-11.41,8.43-16.33,15.64-25.2,13.95-17.15,28.93-33.6,43.22-50.48V98.53h-62.85c-2.79,0-9.21-6.42-9.21-9.21V26.44h.01ZM287.54,74.5l-44.84-43.25v43.25h44.84ZM375.44,169.99c-7.43.73-10.84,8.53-15.83,13.04l18,15.6c3.86-4.52,11.05-10.72,10.85-17.18s-6.7-12.09-13.01-11.47h-.01ZM344.11,201.45l-66.52,78.8,18.47,15.6,66.52-78.8-18.47-15.6ZM250.71,330.8c.79.8,18.88-7.29,20.85-8.37,4.09-2.25,5.74-4.65,8.76-8.04l-18-15.58c-8.95,7.7-8.88,21.19-11.61,31.99Z"/>
  <path class="st0" d="M59.93,147.57l195.98-.19c12.7,1.45,14.85,18.38,3.24,23.27-66.77,1.27-134.27,1.27-201.04,0-11.02-4.74-9.8-20.1,1.83-23.08h-.01Z"/>
  <path class="st0" d="M59.93,219.66l195.98-.19c12.7,1.45,14.85,18.38,3.24,23.27-66.77,1.27-134.27,1.27-201.04,0-11.02-4.74-9.8-20.1,1.83-23.08h-.01Z"/>
  <path class="st0" d="M59.93,74.69l124.65-.12c12.14,2.37,13.84,18.3,2.51,23.2l-126.47.69c-13.11-2.66-13.63-20.32-.68-23.77h0Z"/>
  <path class="st0" d="M59.93,291.74l124.65-.12c12.14,2.37,13.84,18.3,2.51,23.2l-126.47.69c-13.11-2.66-13.63-20.32-.68-23.77h0Z"/>
</svg>