<?xml version="1.0" encoding="UTF-8"?>
<svg id="Layer_1" xmlns="http://www.w3.org/2000/svg" version="1.1" viewBox="0 0 580 580">
  <!-- Generator: Adobe Illustrator 29.7.1, SVG Export Plug-In . SVG Version: 2.1.1 Build 8)  -->
  <defs>
    <style>
      .st0 {
        fill: none;
        stroke-width: 24px;
      }

      .st0, .st1 {
        stroke: #fff;
        stroke-miterlimit: 10;
      }

      .st1 {
        fill: #fff;
      }
    </style>
  </defs>
  <path class="st1" d="M292.7,171.83c2.5.33,5.15,2.04,7.06,3.68l81.63,82.9c12.14,13.44-5.24,32.3-19.35,20.57l-49.11-49.89c-3.04-2.58-7.34-1.51-8.65,2.29l-.22,162.81c-1.54,18.64-26.66,19.25-28.18-.92l.02-160.75c-.51-4.93-5.97-6.25-9.34-2.96l-48.21,48.95c-14.58,12.18-31.83-6.05-19.8-20.11l81.18-82.9c2.36-1.99,4.39-3.33,7.51-3.68,1.31-.15,4.17-.17,5.46,0Z"/>
  <circle class="st0" cx="290" cy="290" r="275"/>
</svg>