<?xml version="1.0" encoding="UTF-8"?>
<svg id="Layer_1" xmlns="http://www.w3.org/2000/svg" version="1.1" viewBox="0 0 400 400">
  <!-- Generator: Adobe Illustrator 29.7.1, SVG Export Plug-In . SVG Version: 2.1.1 Build 8)  -->
  <path d="M207.49,8.41c5.08,1.19,10.74.96,15.99,1.59,146.46,17.66,219.12,190.32,127.97,307.48C250.57,447.16,45.71,397.59,12.42,239.11l-3.97-27.84c.31-7.43-.42-15.05,0-22.46C14.03,90.11,94.83,13.55,192.52,8.41h14.97ZM191.77,24.88c-39.99,6.56-65.62,44.97-78.63,80.38,24.16,13.49,50.92,21.13,78.63,22.92V24.88ZM208.23,24.88v103.3c27.73-1.75,54.45-9.43,78.63-22.92-13.12-35.43-38.5-73.87-78.63-80.38ZM136.4,36.87c-23.19,8.29-43.23,22.96-61.34,39.29,6.96,5.93,13.42,12.73,21.03,17.87.72.49,3,2.55,3.64,1.96,7.86-22,20.83-42.07,36.67-59.13ZM300.28,95.99c.64.6,8.96-5.86,10.08-6.76,4.81-3.87,9.07-8.41,13.85-12.33-16.28-17.85-38-31.47-60.6-40.04,15.8,17.11,28.84,37.1,36.67,59.13ZM80.28,191.81c1.1-27.01,4.76-54.07,13.29-79.75l-29.37-23.56c-23.51,29.06-38.32,65.59-39.29,103.31h55.37ZM319.73,191.81h55.37c-1-37.7-15.83-74.25-39.29-103.31l-29.37,23.56c8.52,25.67,12.17,52.75,13.29,79.75ZM191.77,143.9c-29.75-.84-58.29-9.88-84.55-23.21-6.08,23.17-10.8,47.01-10.48,71.11h95.03v-47.91ZM208.23,143.9v47.91h95.03c.32-24.1-4.4-47.95-10.48-71.11-26.26,13.27-54.81,22.45-84.55,23.21ZM80.28,208.27H24.91c.98,37.71,15.82,74.24,39.29,103.31l29.37-23.56c-8.53-25.68-12.19-52.74-13.29-79.75ZM191.77,208.27h-95.03c-.32,24.1,4.4,47.95,10.48,71.11,26.26-13.32,54.8-22.37,84.55-23.21v-47.91ZM303.27,208.27h-95.03v47.91c29.76.75,58.29,9.93,84.55,23.21,6.08-23.17,10.8-47.01,10.48-71.11ZM375.1,208.27h-55.37c-1.09,27.01-4.82,54.06-13.29,79.75l29.37,23.56c23.45-29.06,38.29-65.62,39.29-103.31ZM191.77,271.9c-27.72,1.72-54.46,9.45-78.63,22.92,13.04,35.43,38.6,73.82,78.63,80.38v-103.3ZM208.23,271.9v103.3c40.11-6.55,65.52-44.94,78.63-80.38-24.18-13.46-50.89-21.23-78.63-22.92ZM99.73,304.09c-.64-.59-2.93,1.48-3.64,1.96-7.52,5.09-14.18,11.92-21.02,17.87,17.84,16.55,38.05,31.39,61.34,39.29-15.8-17.11-28.84-37.1-36.67-59.13ZM263.61,363.21c19.24-6.87,38.86-18.65,53.89-32.54,1.51-1.39,5.03-4.53,6.02-5.98.45-.66,1.06-1.02.37-1.89-4.74-3.72-8.84-8.19-13.54-11.96-1.12-.9-9.43-7.36-10.08-6.76-7.83,22.03-20.87,42.02-36.67,59.13Z"/>
</svg>