<?xml version="1.0" encoding="UTF-8"?>
<svg id="Layer_1" xmlns="http://www.w3.org/2000/svg" version="1.1" viewBox="0 0 415 290">
  <!-- Generator: Adobe Illustrator 29.7.1, SVG Export Plug-In . SVG Version: 2.1.1 Build 8)  -->
  <defs>
    <style>
      .st0 {
        fill: #fff;
      }
    </style>
  </defs>
  <path class="st0" d="M3.01,256.78V33.22C6.07,15.59,18.81,2.81,36.96,1.29l340.15-.04c19.14,1.44,32.87,14.9,34.69,33.98-.64,75.2,1.35,150.67-1.01,225.72-4.04,16.16-17.15,26.56-33.68,27.8l-340.15-.04c-17-1.12-32.02-14.87-33.95-31.93ZM370.3,25.23H44.53l139.72,139.34c13.87,11.24,32.45,11.24,46.33,0L370.3,25.23ZM26.97,247.2l102.94-102.49L26.97,42.8v204.4ZM387.86,247.2V42.8l-102.94,101.91,102.94,102.49h0ZM370.3,264.77l-103.29-102.14c-18.65,19.22-34.06,35.72-63.22,34.31-25.97-1.25-39.12-18.31-56.54-34.31l-102.71,102.14h325.76Z"/>
</svg>