<?xml version="1.0" encoding="UTF-8"?>
<svg id="Layer_1" xmlns="http://www.w3.org/2000/svg" version="1.1" viewBox="0 0 415 415">
  <!-- Generator: Adobe Illustrator 29.7.1, SVG Export Plug-In . SVG Version: 2.1.1 Build 8)  -->
  <defs>
    <style>
      .st0 {
        fill: #fff;
      }
    </style>
  </defs>
  <path class="st0" d="M219.76,411.94h-23.94l-20.22-2.53C89.67,396.08,20.06,327.12,6.09,241.24l-2.63-20.93c.34-7.92-.46-16.06,0-23.95C13.28,28.28,216.15-59.82,343.09,55.02c135.58,122.64,57.5,346.55-123.34,356.92ZM267.65,377.61c106.36-38,154.03-163.63,94.83-262.13C306.84,22.91,183.86-1.86,97.72,65.1,7.92,134.9,3.26,269.69,90.08,344.05c17.05,14.6,36.93,25.52,57.84,33.56v-32.74c-15.71,4.57-34.82-.87-46.29-12.38-9.5-9.54-14.34-27.2-30.33-27.55l-2.4-23.94c13.28-1.08,26.57,5.65,35.53,15.15,8.14,8.64,12.13,22.11,24.82,25.47,6.42,1.7,12.64.57,18.7-1.88l6.38-20.76c-15.83-4.88-31.28-11.62-44.3-22.01-41.75-33.32-46.27-96.29-15.71-138.69-3.1-15.99-4.94-50.08,11.67-59.32,15.81-8.79,44.99,9.62,59.05,17.52,28.07-7.83,58-7.15,86.15-.15,15.54-9.1,50.1-31.45,64.68-11.7,6.22,8.42,8,25.21,7.63,35.47l-2.27,18.18c31.74,44.74,25.61,108.82-19.82,141.76-11.85,8.6-25.99,14.9-40.16,18.52,1.3,4.01,3.4,7.81,4.42,11.94.49,1.98,1.97,9.24,1.97,10.81v56.29ZM297.96,101.37c-14.03.47-25.12,11.53-36.79,17.06-10.17,4.82-19,.04-29.29-1.65-15.97-2.63-32.24-2.63-48.2-.02-10.37,1.7-18.96,6.56-29.27,1.67-11.67-5.53-22.85-16.49-36.78-17.05-1.59,9.2-1.91,18.16-.74,27.44.37,2.92,1.93,6.07,2.23,8.94,1.08,10.54-4.93,13.43-9.62,21.34-16.36,27.54-14.87,65.35,6.11,89.97,19.91,23.37,50.32,29.19,79.43,32.73-8.36,15.69-21.89,25.4-23.18,44.27-1.3,19.03,1.04,39.53.03,58.72,24.03,4.13,47.81,4.13,71.84,0-1.09-19.39,1.44-40.31.03-59.52-1.32-18.02-15.29-28.36-23.18-43.48,29.11-3.54,59.52-9.36,79.43-32.73,20.98-24.62,22.47-62.43,6.11-89.97-4.7-7.91-10.71-10.8-9.62-21.34.3-2.88,1.86-6.03,2.23-8.94,1.17-9.29.85-18.24-.74-27.45Z"/>
</svg>